<svg xmlns="http://www.w3.org/2000/svg" width="50" height="50" viewBox="0 0 50 50"><defs><style>.cls-1{fill:none;}</style></defs><title>ao_icon</title><g id="Layer_2" data-name="Layer 2"><g id="Layer_1-2" data-name="Layer 1"><path d="M13.47,2.79c5.65,0,11.3,4.26,14.16,9.6l-.62.31c-1.78-2.4-4.8-4.41-10-4.41-7,0-13.16,5.42-13.16,11.92a11.83,11.83,0,0,0,3,8.2l-.54.39A15.67,15.67,0,0,1,0,16.1C0,7.58,5.65,2.79,13.47,2.79Z"/><path d="M28.25,16.72c3.33-2.4,7.35-5.19,11.61-5.19,5.5,0,9.44,4.41,10.14,10.06h-.7c-.77-2.32-2.4-4.18-6-4.18-3.25,0-5.8,1.63-11.15,5.5L.62,47.21V38.39Z"/><path d="M34.21,25.46c1.7,2.4,3.64,3.79,7.74,3.79,4.33,0,6.73-1.86,7.35-5H50c-.46,6.11-3.79,9.29-8,9.29s-7-3.95-8.28-7.66Z"/><circle cx="25" cy="42.44" r="4.42"/><rect class="cls-1" width="50" height="50"/></g></g></svg>